<svg version="1.1" id="Layer_1" xmlns:x="ns_extend;" xmlns:i="ns_ai;" xmlns:graph="ns_graphs;" xmlns="http://www.w3.org/2000/svg" xmlns:xlink="http://www.w3.org/1999/xlink" x="0px" y="0px" viewBox="0 0 29.6 40" style="enable-background:new 0 0 29.6 40;" xml:space="preserve">
 <style type="text/css">
  .st0{fill:#1E1E1E;}
 </style>
 <metadata>
  <sfw xmlns="ns_sfw;">
   <slices>
   </slices>
   <sliceSourceBounds bottomLeftOrigin="true" height="40" width="29.6" x="0" y="0">
   </sliceSourceBounds>
  </sfw>
 </metadata>
 <g>
  <path class="st0" d="M16.6,28.5h-3.8V40h3.8V28.5z">
  </path>
  <path class="st0" d="M26.7,36.2h-8.5V40h8.5V36.2z">
  </path>
  <path class="st0" d="M29.6,23h-5.9v3.8h5.9V23z">
  </path>
  <path class="st0" d="M11.1,36.2H7.4V40h3.8L11.1,36.2L11.1,36.2z">
  </path>
  <path class="st0" d="M11.1,14.9v-6l-10,12.4H6L11.1,14.9z">
  </path>
  <path class="st0" d="M12.8,21.3h3.8V2.2l-3.8,4.6V21.3z">
  </path>
  <path class="st0" d="M22,5.3L18.2,10v24.6H22V5.3z">
  </path>
  <path class="st0" d="M16.6,23H0v3.8h16.6V23z">
  </path>
  <path class="st0" d="M18.8,0l-0.5,0.7v6.6L22,2.6L18.8,0z">
  </path>
 </g>
</svg>