<svg xmlns="http://www.w3.org/2000/svg" width="207" height="39" viewBox="0 0 207 39" fill="none">
<path fill-rule="evenodd" clip-rule="evenodd" d="M24.8865 2.26941C22.9983 2.26941 21.4455 2.86699 20.2311 4.06077C19.0153 5.25592 18.4067 6.78077 18.4067 8.63531C18.4067 10.4349 19.0166 11.9323 20.2365 13.1274C21.4564 14.3212 22.982 14.9188 24.8159 14.9188C26.6566 14.9188 28.193 14.3102 29.4238 13.0903C30.6545 11.8732 31.2699 10.3566 31.2699 8.54053C31.2699 6.77253 30.6545 5.28477 29.4238 4.07863C28.193 2.87248 26.6797 2.26941 24.8865 2.26941ZM24.7914 0C27.3412 0 29.4645 0.816 31.1599 2.448C32.8552 4.08137 33.7043 6.12824 33.7043 8.58861C33.7043 11.049 32.8484 13.0848 31.1368 14.6976C29.4251 16.3104 27.2665 17.1168 24.661 17.1168C22.175 17.1168 20.1034 16.3104 18.4474 14.6976C16.7915 13.0848 15.9628 11.0641 15.9628 8.63531C15.9628 6.14335 16.7969 4.08137 18.4651 2.448C20.1333 0.816 22.2416 0 24.7914 0ZM5.46915 0.234909H3.10679V14.2374C3.10679 15.607 3.02664 16.5686 2.80793 16.9849C2.63405 17.4039 2.33519 17.6951 1.91135 17.8613C1.402 18.0725 0.845181 18.071 0.299796 18.0696H0.299568H0.299339H0.299111H0.298882H0.298654H0.298426H0.298199H0.297971H0.297744H0.297517H0.29729H0.297063H0.296836H0.29661H0.296384H0.296158C0.196938 18.0693 0.0981001 18.0691 0 18.0701C0 18.0701 2.15044 20.2544 2.19119 20.2874C2.99811 20.1239 3.68278 19.7461 4.2411 19.1513C5.37949 17.908 5.46915 16.1153 5.46915 14.5135V0.234909ZM43.1863 37.1204C43.655 38.1562 45.6465 37.8417 46.5349 36.8155C46.0649 36.2962 44.5121 34.5886 44.5121 34.5886C43.674 35.0928 42.6307 35.8937 43.1863 37.1204ZM46.0839 31.168C45.9956 30.6488 45.5106 30.3287 44.9197 30.3452C44.3355 30.3603 43.8356 30.7175 43.8329 31.2587C43.8316 31.5637 43.947 31.8618 44.0937 32.1214C44.2663 32.4278 44.5149 32.7327 44.8232 33.013C45.118 32.822 45.3557 32.6352 45.5446 32.4525C45.8842 32.1187 46.1708 31.6681 46.0839 31.168ZM49.3686 33.9155C49.2776 34.4334 48.7437 35.8511 48.1582 36.6163L50.1878 38.8184H48.4435L47.3635 37.6713C46.4575 38.5217 45.3544 39.0148 44.0272 38.9104C42.4106 38.7868 41.7708 37.7441 41.6404 36.9295C41.4434 35.6945 41.9745 34.9417 42.7923 34.2576C42.973 34.1051 43.4851 33.763 43.7025 33.6408C42.9621 32.7836 42.5736 32.1777 42.5193 31.3975C42.4731 30.7326 42.7135 30.1913 43.1483 29.7764C43.583 29.3616 44.1576 29.1541 44.8694 29.1541C45.569 29.1541 46.1477 29.3575 46.6082 29.7641C47.0688 30.1693 47.3065 30.6859 47.3228 31.3164C47.35 32.3962 46.4833 33.3248 45.6247 33.8303L47.369 35.7563C47.748 35.1272 48.055 34.3208 48.1759 33.9169C48.1759 33.9169 49.1947 33.9155 49.3686 33.9155ZM58.5504 0.23697H56.1881V7.50404H46.5362V0.23697H44.1739V16.9238H46.5362V9.66218H56.1881V16.9238H58.5504V0.23697ZM84.0385 0.23697H86.2826V16.9238H84.2517L72.7212 4.07244V16.9238H70.5001V0.23697H72.4142L84.0385 13.1982V0.23697ZM106.842 16.9231V0.236283H109.212V14.7704H116.954V16.9231H106.842ZM128.101 0.236283V16.9231H138.746V14.7704H130.471V9.58319H138.288V7.43055H130.471V2.38756H138.531V0.236283H128.101ZM167.022 11.7358L171.526 0.236283H173.87L167.169 17.0714H166.711L161.288 3.41648L155.819 17.0714H155.361L148.684 0.236283H151.054L155.604 11.7358L160.176 0.236283H162.424L167.022 11.7358ZM184.046 16.925H186.418V0.238206H184.046V16.925ZM200.554 8.83725L202.348 9.94036C203.796 10.8525 204.543 11.8155 204.543 12.8307C204.543 13.4585 204.275 13.9792 203.784 14.3954C203.291 14.8116 202.676 14.9861 201.935 14.9861C200.258 14.9861 198.782 14.2044 197.507 12.5697V15.6029C198.876 16.6524 200.332 17.1099 201.958 17.1401C203.375 17.1648 204.514 16.7198 205.399 15.8845C206.285 15.0479 206.741 13.9462 206.741 12.6082C206.741 10.7289 205.804 9.18206 203.792 7.9663L201.919 6.88655C201.109 6.40711 200.46 5.89608 200.093 5.45923C199.729 5.02238 199.608 4.60752 199.608 4.10747C199.608 3.54562 199.857 3.07168 200.353 2.71176C200.848 2.35046 201.482 2.17051 202.254 2.17051C203.624 2.17051 204.903 2.74885 206.092 3.90416V1.19378C204.943 0.410747 203.819 0.0206061 202.301 0.0206061C200.861 0.0206061 199.658 0.416242 198.756 1.23636C197.854 2.05648 197.405 3.12388 197.405 4.43717C197.405 5.31362 197.671 6.13511 198.202 6.80275C198.716 7.4484 199.428 8.14214 200.554 8.83725ZM68.3611 30.2888H66.9075V33.3427H68.4439C69.4818 33.3427 70.1991 32.8728 70.1991 31.7903C70.1991 30.7889 69.5864 30.2888 68.3611 30.2888ZM65.5192 38.8184V29.0456H68.6029C69.5239 29.0456 70.2588 29.2956 70.8063 29.7998C71.3551 30.3026 71.6295 30.9785 71.6295 31.8261C71.6295 32.3934 71.5032 32.9141 71.2193 33.3509C70.953 33.7589 70.5455 34.0982 70.0537 34.2878C69.4614 34.5158 68.918 34.5886 67.9535 34.5859H66.9075V38.8184H65.5192ZM80.4678 31.1477L82.0246 34.6837H79.0237L80.4678 31.1477ZM80.965 29.0033H79.9937L75.849 38.8187H77.2686L78.4749 35.9269H82.5924L83.8789 38.8187H85.293L80.965 29.0033ZM103.285 29.0452H111.385V30.2884H108.031V38.818H106.642V30.2884H103.285V29.0452ZM126.848 29.0587H125.536V36.6403L118.978 29.0587H117.859V38.8177H119.158V31.3034L125.659 38.8177H126.848V29.0587ZM134.175 29.0587H139.645V30.3019H135.556V33.2788H139.508V34.5289H135.556V37.5607H139.778V38.8053H134.175V29.0587ZM92.8739 30.2472H93.2882C93.9661 30.2472 94.4497 30.2994 94.7431 30.3997C95.3313 30.6044 95.6682 31.1553 95.6655 31.7638C95.6614 32.3435 95.3979 32.8875 94.8396 33.1458C94.5787 33.2667 94.0992 33.3271 93.3996 33.3271H92.8739V30.2472ZM91.4638 29.0589V38.818H92.8453V34.5704H93.2053C93.6577 34.5704 94.0055 34.624 94.197 34.7284C94.3885 34.8328 94.576 34.9907 94.8137 35.2284C95.0501 35.4661 95.3123 35.7971 95.5976 36.1983L96.1138 36.9593L96.8107 38.0569C96.8514 38.1132 97.2956 38.818 97.2956 38.818H98.9584L98.4463 38.1201C98.2439 37.8399 97.9599 37.425 97.623 36.87C97.0892 35.9894 96.6898 35.3713 96.395 35.0182C96.1002 34.6652 95.7986 34.3863 95.4903 34.1802C96.0146 33.9755 96.3923 33.6651 96.6735 33.2516C96.9547 32.8367 97.096 32.3449 97.096 31.7762C97.096 30.9437 96.808 30.2816 96.2347 29.7925C95.6614 29.3035 94.8871 29.0589 93.9104 29.0589H91.4638ZM148.328 30.2472H147.913V33.3271H148.438C149.139 33.3271 149.618 33.2667 149.879 33.1458C150.437 32.8875 150.701 32.3435 150.705 31.7638C150.708 31.1553 150.369 30.6044 149.783 30.3997C149.489 30.2994 149.006 30.2472 148.328 30.2472ZM146.503 38.818V29.0589H148.95C149.925 29.0589 150.701 29.3035 151.274 29.7925C151.847 30.2816 152.134 30.9437 152.134 31.7762C152.134 32.3449 151.994 32.8367 151.713 33.2516C151.432 33.6651 151.054 33.9755 150.53 34.1802C150.838 34.3863 151.14 34.6652 151.434 35.0182C151.729 35.3713 152.129 35.9894 152.663 36.87C152.999 37.425 153.283 37.8399 153.486 38.1201L153.997 38.818H152.335C152.335 38.818 151.891 38.1132 151.849 38.0569L151.152 36.9593L150.637 36.1983C150.352 35.7971 150.09 35.4661 149.852 35.2284C149.614 34.9907 149.428 34.8328 149.237 34.7284C149.045 34.624 148.696 34.5704 148.245 34.5704H147.885V38.818H146.503ZM161.604 34.0837L162.654 34.7293C163.502 35.2637 163.926 35.8269 163.926 36.419C163.926 36.7872 163.782 37.0921 163.494 37.3353C163.206 37.5784 162.846 37.7007 162.413 37.7007C161.432 37.7007 160.568 37.2227 159.822 36.2665V38.0414C160.604 38.6349 161.473 38.9316 162.426 38.9316C163.255 38.9316 163.929 38.6871 164.446 38.1966C164.965 37.7076 165.225 37.0715 165.225 36.2899C165.225 35.1909 164.635 34.2856 163.459 33.574L162.403 32.9435C161.929 32.6618 161.585 32.3953 161.372 32.1385C161.157 31.8843 161.051 31.6096 161.051 31.3183C161.051 30.9886 161.197 30.718 161.487 30.5078C161.777 30.2963 162.148 30.1905 162.599 30.1905C163.4 30.1905 164.149 30.5284 164.844 31.2057V29.619C164.172 29.1616 163.433 28.9335 162.626 28.9335C161.784 28.9335 161.098 29.1739 160.571 29.6534C160.043 30.1328 159.78 30.7565 159.78 31.5258C159.78 32.0382 159.92 32.4901 160.198 32.883C160.477 33.2773 160.945 33.677 161.604 34.0837Z" fill="black"/>
</svg>