<svg version="1.1" id="Layer_1" xmlns="http://www.w3.org/2000/svg" xmlns:xlink="http://www.w3.org/1999/xlink" x="0px" y="0px" viewBox="-937.7 -44.1 1203.5 219.4" style="enable-background:new -937.7 -44.1 1203.5 219.4;" xml:space="preserve">
 <style type="text/css">
  .st0{fill:#3C1053;}
	.st1{fill:#FFFFFF;}
	.st2{filter:url(#Adobe_OpacityMaskFilter);}
	.st3{clip-path:url(#SVGID_2_);}
	.st4{clip-path:url(#SVGID_8_);}
	.st5{clip-path:url(#SVGID_9_);fill:url(#SVGID_11_);}
	.st6{clip-path:url(#SVGID_2_);mask:url(#SVGID_3_);fill:url(#SVGID_12_);}
	.st7{filter:url(#Adobe_OpacityMaskFilter_1_);}
	.st8{clip-path:url(#SVGID_14_);}
	.st9{clip-path:url(#SVGID_20_);}
	.st10{clip-path:url(#SVGID_21_);fill:url(#SVGID_22_);}
	.st11{clip-path:url(#SVGID_14_);mask:url(#SVGID_10_);fill:url(#SVGID_23_);}
	.st12{filter:url(#Adobe_OpacityMaskFilter_2_);}
	.st13{clip-path:url(#SVGID_25_);}
	.st14{clip-path:url(#SVGID_30_);}
	.st15{clip-path:url(#SVGID_31_);fill:url(#SVGID_32_);}
	.st16{clip-path:url(#SVGID_25_);mask:url(#SVGID_17_);fill:url(#SVGID_33_);}
	.st17{fill:#E40521;}
	.st18{fill:#D20A18;}
 </style>
 <g>
  <path class="st0" d="M-262.7,33v27.4h-33.3v71.3c0,12.7,6,15.2,17.2,15.2c6.5,0,11.4-1.3,13.7-2l2.5-0.8v27.4l-1.4,0.4
		c-9.4,2.4-17.2,3.1-28.7,3.1c-8,0-34.1-2.6-34.1-36.8V60.4h-19.6v-1.9c0-1.3,0-10.7,0-19.5v-6h19.6V-2.1l30.8-10.8v45.9L-262.7,33
		L-262.7,33z M-55.8-11.8l-36.9,183.9H-124l-32.6-128l-33.1,128h-30.8L-259-11.8h32.1l25,124.7l31.1-124.7h30
		c3,11.7,31.1,123.2,31.5,124.6c0.2-1.5,22.1-120.5,22.9-124.6H-55.8z M-23.9,88.1c0.8-13.1,10-30.2,29.6-30.2
		c21.3,0,27.7,18.8,28.4,30.2H-23.9z M7.1,30.5c-23.5,0-63.1,15.3-63.1,72.7C-56,171.5-1.6,175,9.3,175c23.1,0,33.4-4.8,43.5-9.6
		l1.1-0.5v-29.1l-2.9,1.8c-7.4,4.6-21.6,9.8-37.6,9.8c-32.3,0-36.9-23.1-37.3-32.8h88.9l0.2-1.6c2.8-19.2,0-46.1-15.7-64.3
		C39,36.6,24.7,30.5,7.1,30.5 M179,133.4c0,20.9-18.2,41.9-52.7,41.9c-15.2,0-31.9-3.7-43.9-9.6l-1.1-0.6v-29.8l2.8,1.5
		c10,5.4,26,11.1,41.3,11.1c14,0,22-5,22-13.7c0-8.2-4.9-10.7-17-16.1l-4.8-2c-5.9-2.5-11-4.8-19.4-8.7c-8.1-3.7-27-12.2-27-37.6
		c0-13.7,10.5-39.3,49.8-39.3c16.2,0,32.3,4.4,38.6,7.4l1.1,0.6v29.3l-2.8-1.3c-12.6-6.2-23.6-9.1-35.8-9.1
		c-4.5,0-19.4,0.9-19.4,11.3c0,7.9,9.4,12,16.9,15.4l1.5,0.6c5.5,2.4,9.8,4.4,13.4,5.9l4,1.7C170.1,102.7,179,113.7,179,133.4
		 M-516.7-11.8h30.1v183.9h-29.3l-80.2-128v128h-30V-11.8h30l79.5,129L-516.7-11.8L-516.7-11.8z M232.4,60.4v71.3
		c0,12.8,6,15.2,17.2,15.2c6.3,0,11.2-1.3,13.7-1.9l2.5-0.8v27.4l-1.6,0.4c-9.2,2.4-17,3.1-28.6,3.1c-8,0-33.9-2.6-33.9-36.8V60.4
		H182v-1.9c-0.1-1.3-0.1-10.7,0-19.5v-6h19.7V-2.1l30.7-10.8v45.9h33.3v27.4L232.4,60.4L232.4,60.4z M-385.9,131.5
		c-3.5,4.4-14.6,15.9-31.8,15.9c-13.2,0-21.7-7.6-21.7-19.4c0-12,9.6-19,26.5-19h27C-385.9,108.9-385.9,131.5-385.9,131.5z
		 M-409.6,30c-15.6,0-30.8,2.7-41.5,7.4l-1.2,0.4v28.3l2.8-1.4c7.2-3.5,24.5-6.7,35.4-6.7c27,0,28.2,10.3,28.3,23.7h-28.9
		c-38.3,0-55.7,24-55.7,46.2c0,31,24.6,47.1,49.1,47.1c16.7,0,27.2-6.3,35.6-13.7v10.8h30.5V78C-355.2,34.7-393.3,30-409.6,30">
  </path>
  <g>
   <polygon class="st1" points="-829.4,174.9 -811.3,143.5 -793.2,174.9 -721,174.9 -721,174.9 -684.9,112.3 -721,49.8 -721,49.8 
			-757.1,49.8 -739.1,18.5 -775.2,-44.1 -775.2,-44.1 -847.4,-44.1 -883.5,18.4 -865.4,49.8 -901.6,49.8 -937.7,112.3 -937.7,112.3 
			-937.7,112.3 -901.6,174.9 -829.4,174.9 		">
   </polygon>
   <g>
    <g>
     <defs>
      <polygon id="SVGID_1_" points="-757.1,49.8 -775.2,81 -811.3,81 -829.3,112.3 -757.1,112.3 -721,49.8 					">
      </polygon>
     </defs>
     <clipPath id="SVGID_2_">
      <use href="#SVGID_1_" style="overflow:visible;">
      </use>
     </clipPath>
     <defs>
      <filter id="Adobe_OpacityMaskFilter" filterUnits="userSpaceOnUse" x="-856.4" y="2.9" width="162.5" height="156.3">
       <feColorMatrix type="matrix" values="1 0 0 0 0  0 1 0 0 0  0 0 1 0 0  0 0 0 1 0">
       </feColorMatrix>
      </filter>
     </defs>
     <mask maskUnits="userSpaceOnUse" x="-856.4" y="2.9" width="162.5" height="156.3" id="SVGID_3_">
      <g class="st2">
       <g>
        <g>
         <defs>
          <polygon id="SVGID_4_" points="-757.1,49.8 -775.2,81 -811.3,81 -829.3,112.3 -757.1,112.3 -721,49.8 									">
          </polygon>
         </defs>
         <clipPath id="SVGID_5_" class="st3">
          <use xlink:href="#SVGID_4_" style="overflow:visible;">
          </use>
         </clipPath>
        </g>
        <g>
         <defs>
          <polygon id="SVGID_6_" points="-757.1,49.8 -775.2,81 -811.3,81 -829.3,112.3 -757.1,112.3 -721,49.8 									">
          </polygon>
         </defs>
         <defs>
          <rect id="SVGID_7_" x="-829.3" y="18.5" transform="matrix(-0.5 0.866 -0.866 -0.5 -1092.5569 792.8845)" width="108.3" height="125.1">
          </rect>
         </defs>
         <clipPath id="SVGID_8_" class="st3">
          <use xlink:href="#SVGID_6_" style="overflow:visible;">
          </use>
         </clipPath>
         <clipPath id="SVGID_9_" class="st4">
          <use xlink:href="#SVGID_7_" style="overflow:visible;">
          </use>
         </clipPath>
         <linearGradient id="SVGID_11_" gradientUnits="userSpaceOnUse" x1="-224.2706" y1="-353.7624" x2="-220.4992" y2="-353.7624" gradientTransform="matrix(14.3727 8.2981 -8.2981 14.3727 -514.4344 7010.9468)">
          <stop offset="0" style="stop-color:#1A1A1A">
          </stop>
          <stop offset="0.1413" style="stop-color:#222222">
          </stop>
          <stop offset="0.3718" style="stop-color:#3B3B3B">
          </stop>
          <stop offset="0.6627" style="stop-color:#626262">
          </stop>
          <stop offset="1" style="stop-color:#999999">
          </stop>
         </linearGradient>
         <polygon class="st5" points="-815.8,-67.5 -626.2,42 -734.5,229.6 -924.1,120.1 								">
         </polygon>
        </g>
       </g>
      </g>
     </mask>
     <linearGradient id="SVGID_12_" gradientUnits="userSpaceOnUse" x1="-224.2707" y1="-353.7623" x2="-220.4992" y2="-353.7623" gradientTransform="matrix(14.3727 8.2981 -8.2981 14.3727 -514.4335 7010.9473)">
      <stop offset="0" style="stop-color:#E40521">
      </stop>
      <stop offset="1" style="stop-color:#E40521">
      </stop>
     </linearGradient>
     <polygon class="st6" points="-802.2,2.9 -693.9,65.4 -748.1,159.2 -856.4,96.7 				">
     </polygon>
    </g>
   </g>
   <g>
    <g>
     <defs>
      <polygon id="SVGID_13_" points="-883.5,18.4 -883.5,18.4 -865.4,49.8 -829.4,49.8 -811.3,81 -775.2,81 -811.3,18.4 					">
      </polygon>
     </defs>
     <clipPath id="SVGID_14_">
      <use xlink:href="#SVGID_13_" style="overflow:visible;">
      </use>
     </clipPath>
     <defs>
      <filter id="Adobe_OpacityMaskFilter_1_" filterUnits="userSpaceOnUse" x="-914.3" y="-34.9" width="170" height="169.3">
       <feColorMatrix type="matrix" values="1 0 0 0 0  0 1 0 0 0  0 0 1 0 0  0 0 0 1 0">
       </feColorMatrix>
      </filter>
     </defs>
     <mask maskUnits="userSpaceOnUse" x="-914.3" y="-34.9" width="170" height="169.3" id="SVGID_10_">
      <g class="st7">
       <g>
        <g>
         <defs>
          <polygon id="SVGID_15_" points="-883.5,18.4 -883.5,18.4 -865.4,49.8 -829.4,49.8 -811.3,81 -775.2,81 -811.3,18.4 
																			">
          </polygon>
         </defs>
         <clipPath id="SVGID_16_" class="st8">
          <use xlink:href="#SVGID_15_" style="overflow:visible;">
          </use>
         </clipPath>
        </g>
        <g>
         <defs>
          <polygon id="SVGID_18_" points="-883.5,18.4 -883.5,18.4 -865.4,49.8 -829.4,49.8 -811.3,81 -775.2,81 -811.3,18.4 
																			">
          </polygon>
         </defs>
         <defs>
          <rect id="SVGID_19_" x="-888.1" y="-11.9" transform="matrix(-0.6428 0.766 -0.766 -0.6428 -1324.3679 716.9929)" width="117.6" height="123.2">
          </rect>
         </defs>
         <clipPath id="SVGID_20_" class="st8">
          <use xlink:href="#SVGID_18_" style="overflow:visible;">
          </use>
         </clipPath>
         <clipPath id="SVGID_21_" class="st9">
          <use xlink:href="#SVGID_19_" style="overflow:visible;">
          </use>
         </clipPath>
         <linearGradient id="SVGID_22_" gradientUnits="userSpaceOnUse" x1="-116.9291" y1="-334.4359" x2="-113.1577" y2="-334.4359" gradientTransform="matrix(-10.0181 11.9394 -11.9394 -10.0181 -5970.8462 -1931.8751)">
          <stop offset="0" style="stop-color:#1A1A1A">
          </stop>
          <stop offset="0.1413" style="stop-color:#222222">
          </stop>
          <stop offset="0.3718" style="stop-color:#3B3B3B">
          </stop>
          <stop offset="0.6627" style="stop-color:#626262">
          </stop>
          <stop offset="1" style="stop-color:#999999">
          </stop>
         </linearGradient>
         <polygon class="st10" points="-661,35 -814.6,218.1 -997.7,64.4 -844.1,-118.6 								">
         </polygon>
        </g>
       </g>
      </g>
     </mask>
     <linearGradient id="SVGID_23_" gradientUnits="userSpaceOnUse" x1="-116.9291" y1="-334.4364" x2="-113.1577" y2="-334.4364" gradientTransform="matrix(-10.0181 11.9394 -11.9394 -10.0181 -5970.8462 -1931.8751)">
      <stop offset="0" style="stop-color:#E40521">
      </stop>
      <stop offset="1" style="stop-color:#E40521">
      </stop>
     </linearGradient>
     <polygon class="st11" points="-744.4,44.3 -819.9,134.4 -914.3,55.2 -838.7,-34.9 				">
     </polygon>
    </g>
   </g>
   <g>
    <g>
     <defs>
      <polygon id="SVGID_24_" points="-865.5,112.3 -829.4,174.9 -811.3,143.5 -829.3,112.3 -811.3,81 -829.4,49.8 					">
      </polygon>
     </defs>
     <clipPath id="SVGID_25_">
      <use xlink:href="#SVGID_24_" style="overflow:visible;">
      </use>
     </clipPath>
     <defs>
      <filter id="Adobe_OpacityMaskFilter_2_" filterUnits="userSpaceOnUse" x="-927.1" y="23.1" width="177.4" height="178.5">
       <feColorMatrix type="matrix" values="1 0 0 0 0  0 1 0 0 0  0 0 1 0 0  0 0 0 1 0">
       </feColorMatrix>
      </filter>
     </defs>
     <mask maskUnits="userSpaceOnUse" x="-927.1" y="23.1" width="177.4" height="178.5" id="SVGID_17_">
      <g class="st12">
       <g>
        <g>
         <defs>
          <polygon id="SVGID_26_" points="-865.5,112.3 -829.4,174.9 -811.3,143.5 -829.3,112.3 -811.3,81 -829.4,49.8 									">
          </polygon>
         </defs>
         <clipPath id="SVGID_27_" class="st13">
          <use xlink:href="#SVGID_26_" style="overflow:visible;">
          </use>
         </clipPath>
        </g>
        <g>
         <defs>
          <polygon id="SVGID_28_" points="-865.5,112.3 -829.4,174.9 -811.3,143.5 -829.3,112.3 -811.3,81 -829.4,49.8 									">
          </polygon>
         </defs>
         <defs>
          <rect id="SVGID_29_" x="-903.7" y="51.4" transform="matrix(-0.6428 0.766 -0.766 -0.6428 -1291.2665 826.7972)" width="130.7" height="121.9">
          </rect>
         </defs>
         <clipPath id="SVGID_30_" class="st13">
          <use xlink:href="#SVGID_28_" style="overflow:visible;">
          </use>
         </clipPath>
         <clipPath id="SVGID_31_" class="st14">
          <use xlink:href="#SVGID_29_" style="overflow:visible;">
          </use>
         </clipPath>
         <linearGradient id="SVGID_32_" gradientUnits="userSpaceOnUse" x1="-206.5388" y1="-352.3565" x2="-202.7673" y2="-352.3565" gradientTransform="matrix(16.339 13.7104 -13.7104 16.339 -2320.2378 8679.7979)">
          <stop offset="0" style="stop-color:#1A1A1A">
          </stop>
          <stop offset="0.1413" style="stop-color:#222222">
          </stop>
          <stop offset="0.3718" style="stop-color:#3B3B3B">
          </stop>
          <stop offset="0.6627" style="stop-color:#626262">
          </stop>
          <stop offset="1" style="stop-color:#999999">
          </stop>
         </linearGradient>
         <polygon class="st15" points="-853.8,-64.3 -661.8,96.9 -823,288.9 -1015,127.8 								">
         </polygon>
        </g>
       </g>
      </g>
     </mask>
     <linearGradient id="SVGID_33_" gradientUnits="userSpaceOnUse" x1="-206.5388" y1="-352.3567" x2="-202.7673" y2="-352.3567" gradientTransform="matrix(16.339 13.7104 -13.7104 16.339 -2320.2378 8679.7979)">
      <stop offset="0" style="stop-color:#E40521">
      </stop>
      <stop offset="1" style="stop-color:#E40521">
      </stop>
     </linearGradient>
     <polygon class="st16" points="-843.1,23.1 -749.7,101.5 -833.7,201.6 -927.1,123.2 				">
     </polygon>
    </g>
   </g>
   <path class="st17" d="M-721,174.9L-721,174.9h-72.2l-36.1-62.6h72.2l36.1-62.5l36.1,62.6L-721,174.9z M-865.5,112.3L-865.5,112.3
			l36.1-62.5h-72.2l-36.1,62.5l0,0l0,0l36.1,62.6h72.2h0L-865.5,112.3z M-775.2-44.1l36.1,62.6L-775.2,81l-36.1-62.6l0,0h-72.2
			l36.1-62.5H-775.2z M-775.2-44.1L-775.2-44.1L-775.2-44.1z">
   </path>
   <path class="st18" d="M-721,49.8l36.1,62.6l-36.1,62.6l-36.1-62.6L-721,49.8z M-865.5,112.3h-72.2l0,0l36.1,62.6h72.2h0
			L-865.5,112.3z M-811.3,18.4l36.1,62.6l36.1-62.5l-36.1-62.6L-811.3,18.4z">
   </path>
  </g>
 </g>
</svg>