<svg focusable="false" viewBox="0 0 40 40" xmlns="http://www.w3.org/2000/svg"><path d="M36.877 9.965V8.042l-2.573-1.393V4.638l-1.319-.627C29.239 2.222 25.093 1.028 20.313.392l-.312-.043-.312.043c-4.781.635-8.927 1.829-12.675 3.617l-1.319.628v2.011L3.123 8.041v1.925L.328 11.464l.221 1.597C1.29 18.42 3.242 23.27 6.354 27.48c3.144 4.253 7.387 7.733 12.613 10.344l1.035.517 1.035-.517c5.225-2.611 9.469-6.091 12.613-10.344 3.111-4.208 5.063-9.059 5.805-14.419l.221-1.597zm.273 2.779c-.261 1.787-1.101 7.627-5.373 13.359-4.344 5.901-10.056 8.765-11.779 9.645-1.723-.881-7.435-3.744-11.779-9.645C3.947 20.37 3.107 14.53 2.846 12.744l2.595-1.392V9.421l2.571-1.393V6.101C11.57 4.403 15.489 3.289 20 2.69c4.509.599 8.429 1.717 11.987 3.411V8.03l2.573 1.393v1.931l2.595 1.392z"></path><path d="M16.153 7.329l.12 15.697-.109.064c-1.661-4.201-2.653-9.441-2.966-14.699a20.571 20.571 0 00-2.569 1.383c.357 4.769 1.175 8.941 2.637 12.901l-.829.48C10.24 20.08 8.805 16.34 7.821 11.902a22.857 22.857 0 00-2.009 2.059c1.288 5.327 3.315 9.36 6.277 12.645l2.283-1.365a26.286 26.286 0 004.417 6.469V6.865a17.12 17.12 0 00-2.635.465zM30.853 15.421c.931-1.031 1.129-1.779 1.129-2.687 0-1.285-1.059-2.427-2.603-3.407-.931-.593-2.357-1.312-4.437-1.891a17.486 17.486 0 00-3.729-.573v24.848c5.221-2.688 11.432-10.056 11.464-13.805.009-1.145-.595-1.895-1.825-2.485m-7.071-5.587c1.287 0 5.447 1.315 5.447 2.976 0 .599-.528 1.456-2.173 2.321l-3.272 1.755zm3.243 13.781c-.736.847-1.939 2.141-3.243 3.147v-7.131s4.721-2.657 4.895-2.769c1.413.357 1.341 1.397 1.341 1.505-.001 1.309-1.339 3.336-2.995 5.249"></path></svg>