<svg viewBox="0 0 177 56" fill="none" xmlns="http://www.w3.org/2000/svg" xmlns:xlink="http://www.w3.org/1999/xlink">
 <g clip-path="url(#clip0)" fill="#000">
  <path d="M131.664 21.0351h-.894v-4.1276h-.674v-.8929h.694v-1.6669h.893v1.6669h.794v.8929h-.794v4.1276h-.019zm4.902 0V18.376c0-.3969 0-1.5677-1.171-1.5677-.794 0-1.27.5953-1.27 1.5677v2.6591h-.893v-6.5882h.893v2.163c.496-.6946 1.171-.6946 1.369-.6946.794 0 1.369.2977 1.766.893.199.2977.298.6946.298 1.27v2.9568h-.992zm2.758-2.0638c.199.9922.993 1.3693 1.568 1.3693.695 0 1.171-.3969 1.37-.7938h.893c-.496 1.27-1.568 1.6669-2.362 1.6669-1.369 0-2.56-1.1708-2.56-2.5599 0-1.4684 1.171-2.5599 2.56-2.5599 1.37 0 2.461 1.0716 2.56 2.5599v.4961c.1-.1786-4.029-.1786-4.029-.1786zm3.136-.7937c0-.6946-.694-1.4685-1.568-1.4685-.893 0-1.568.6945-1.568 1.4685h3.136zm10.916 2.8575v-2.7583c0-.3969-.099-1.4685-1.171-1.4685-1.171 0-1.171 1.0716-1.171 1.4685v2.7583h-.893v-2.7583c0-.3969 0-.6946-.198-.9922-.199-.3969-.596-.4961-.894-.4961-1.171 0-1.171 1.0716-1.171 1.4684v2.7584h-.893v-4.9214h.893v.4961c.199-.1984.497-.6945 1.37-.6945.595 0 1.27.2977 1.568.7938.198-.2977.496-.7938 1.667-.7938.794 0 1.369.2977 1.766.893.199.2976.298.6945.298 1.1708v2.9567l-1.171.1191zm4.525.0794c-1.667 0-2.659-1.3693-2.659-2.6591 0-1.3693 1.071-2.5599 2.659-2.5599 1.469 0 2.66 1.1708 2.66 2.5599-.02 1.2898-.993 2.6591-2.66 2.6591zm0-4.3062c-1.072 0-1.766.893-1.766 1.7661 0 .8732.694 1.7662 1.766 1.7662.992 0 1.767-.7938 1.767-1.7662-.1-.9922-.794-1.7661-1.767-1.7661zm3.533 4.2268v-6.5882h.893v2.3614c.397-.5953.992-.7937 1.667-.7937 1.27 0 2.56 1.0715 2.56 2.5598 0 1.3693-1.071 2.5599-2.56 2.5599-.496 0-1.171-.1984-1.667-.8929v.6945l-.893.0992zm2.56-.7937c.893 0 1.667-.7938 1.667-1.7662 0-.893-.694-1.7661-1.667-1.7661-.972 0-1.667.893-1.667 1.7661-.02 1.1708.873 1.7662 1.667 1.7662zm4.505-4.723h-.893v-1.0715h.893v1.0715zm0 5.5167h-.893v-4.9213h.893v4.9213zm2.064 0h-.893v-6.5882h.893v6.5882zm1.866-2.0638c.198.9922.992 1.3693 1.568 1.3693.695 0 1.171-.3969 1.369-.7938h.893c-.496 1.27-1.567 1.6669-2.361 1.6669-1.37 0-2.561-1.1708-2.561-2.5599 0-1.4684 1.171-2.5599 2.561-2.5599 1.369 0 2.461 1.0716 2.56 2.5599v.4961c.099-.1786-4.029-.1786-4.029-.1786zm3.255-.7937c0-.6946-.695-1.4685-1.568-1.4685-.873 0-1.568.6945-1.568 1.4685h3.136zm-41.559 12.6803v-2.6591c0-.3969 0-1.5677-1.171-1.5677-.794 0-1.271.5954-1.271 1.5677v2.6591h-.893v-4.9213h.893v.4961c.497-.6945 1.271-.6945 1.469-.6945.794 0 1.37.2976 1.766.8929.199.2977.298.6946.298 1.2701v2.9567h-1.091zm3.036-2.0638c.199.9923.993 1.3693 1.568 1.3693.695 0 1.171-.3969 1.37-.7938h.893c-.497 1.2701-1.568 1.6669-2.362 1.6669-1.37 0-2.56-1.1708-2.56-2.5599 0-1.4684 1.171-2.5598 2.56-2.5598 1.369 0 2.461 1.0715 2.56 2.5598v.4961c0-.1785-4.029-.1786-4.029-.1786zm3.136-.6945c0-.6945-.695-1.4685-1.568-1.4685-.893 0-1.568.6946-1.568 1.4685h3.136zm3.156 2.7583h-.893v-4.1275h-.695v-.893h.695v-1.6669h.893v1.6669h.794v.893h-.794v4.1275zm6.291 0h-.496l-1.072-3.3338-1.072 3.3338h-.496l-1.865-4.9213h.992l1.072 3.2346.992-3.2346h.595l.993 3.2346 1.072-3.2346h.992l-1.707 4.9213zm4.902.0993c-1.667 0-2.659-1.3693-2.659-2.6592 0-1.3692 1.072-2.5598 2.659-2.5598 1.469 0 2.66 1.1708 2.66 2.5598 0 1.2701-.993 2.6592-2.66 2.6592zm0-4.3261c-1.071 0-1.766.893-1.766 1.7662 0 .8929.695 1.7661 1.766 1.7661.993 0 1.767-.7938 1.767-1.7661 0-.893-.774-1.7662-1.767-1.7662zm3.831 4.2268v-4.9213h.893v.4961c.397-.5953.992-.5953 1.27-.5953v.9922c-.099 0-.496.0992-.695.1984-.297.1985-.595.4961-.595 1.27v2.6592c.119-.0993-.873-.0993-.873-.0993zm7.184-4.9213l-1.766 2.3614 2.064 2.6592h-1.171l-1.965-2.5599v2.5599h-.893v-6.5883h.893v4.0284l1.767-2.3615 1.071-.0992zM130.572 40.78v-4.9214h.893v.4961c.397-.5953.992-.5953 1.27-.5953v.9922c-.099 0-.496.0992-.694.1985-.298.1984-.596.4961-.596 1.27v2.6591c.02-.0992-.873-.0992-.873-.0992zm3.93-4.9214v2.6591c0 1.1708.595 1.5677 1.171 1.5677.794 0 1.27-.4961 1.27-1.5677v-2.6591h.893V40.78h-.893v-.4961c-.298.3969-.794.6945-1.469.6945-.595 0-1.072-.1984-1.369-.4961-.397-.3969-.695-.893-.695-1.8653v-2.6591h1.072v-.0993h.02zm8.058 4.9214v-2.6591c0-.3969 0-1.5677-1.171-1.5677-.794 0-1.271.5953-1.271 1.5677V40.78h-.893v-4.9214h.893v.4961c.497-.6945 1.271-.6945 1.469-.6945.794 0 1.369.2977 1.766.893.199.2976.298.6945.298 1.27V40.78h-1.091zm4.624 0v-6.5883h.893v2.3615c.397-.5953.992-.7938 1.667-.7938 1.27 0 2.56 1.0716 2.56 2.5599 0 1.3692-1.071 2.5599-2.56 2.5599-.496 0-1.171-.1984-1.667-.893v.6946l-.893.0992zm2.56-.7938c.893 0 1.667-.7938 1.667-1.7661 0-.893-.694-1.7661-1.667-1.7661-.992 0-1.667.8929-1.667 1.7661 0 1.1708.774 1.7661 1.667 1.7661zm5.001 2.3615h-.992l.695-1.7662-1.965-4.8221h.992l1.469 3.8299 1.469-3.8299h.992l-2.66 6.5883zm7.562 0h-.992l.694-1.7662-1.964-4.8221h.992l1.469 3.8299 1.468-3.8299h.993l-2.66 6.5883zm5.617-1.4685c-1.667 0-2.66-1.3692-2.66-2.6591 0-1.3693 1.072-2.5599 2.66-2.5599 1.468 0 2.659 1.1708 2.659 2.5599-.02 1.27-.992 2.6591-2.659 2.6591zm0-4.326c-1.072 0-1.767.893-1.767 1.7661 0 .893.695 1.7661 1.767 1.7661.992 0 1.766-.7937 1.766-1.7661-.099-.893-.794-1.7661-1.766-1.7661zm4.505-.6946v2.6591c0 1.1708.595 1.5677 1.171 1.5677.794 0 1.27-.4961 1.27-1.5677v-2.6591h.893V40.78h-.893v-.4961c-.298.3969-.794.6945-1.468.6945-.596 0-1.072-.1984-1.37-.4961-.397-.3969-.695-.893-.695-1.8653v-2.6591h1.072v-.0993h.02zM109.158 11.9859c-.397-.0992-.992-.0992-1.469-.0992-1.865 0-3.433.3969-4.723 1.1708-1.767 1.1708-2.759 3.0362-2.759 5.5961v.4961h-5.9937v-.2779c0-2.0637 1.171-3.0361 3.5327-3.0361l.8932.0992V12.105c-.397-.0992-.8932-.0992-1.5679-.0992-1.8656 0-3.3343.3969-4.6244 1.1708-1.8656 1.1708-2.7587 2.9568-2.7587 5.596v14.6449h-3.0365c-.4962 0-.7939-.2976-.7939-.7937v-6.7867c0-4.8221-2.5603-7.2629-7.8594-7.2629-1.5679 0-2.8579.1984-4.0289.6945-1.6671.5953-2.6595 1.5677-2.6595 3.0362v1.8653h4.1282v-.9922c0-.3969.2977-.7938.8931-.9922.3969-.1984.8931-.2977 1.4687-.2977 1.1709 0 2.064.2977 2.5602.7938.4962.4961.7939 1.4685.7939 2.7583v.0992h-.5954c-2.5603 0-4.7236.2977-6.4899.9922-2.858.9923-4.2274 2.7584-4.2274 5.1 0 1.7661.5954 3.1353 1.8656 4.1275 1.1709.9923 2.6595 1.4685 4.3266 1.4685s3.0366-.4961 4.2274-1.5677c.4961-.4961.9923-1.0715 1.1709-1.6669h.0993l-.0993.7938c0 .5953.1985 1.0716.4962 1.4685.397.3968.9923.5953 1.7664.5953h10.1219V22.4041h5.9937v14.4465h4.4259V22.4041h4.029v-3.6315h-4.029v-.2976c0-2.0638 1.171-3.0362 3.533-3.0362l.992.0992.397-3.5521zM80.7571 28.8931h.7939v.4961c0 1.0716-.3969 2.2622-1.1709 3.1354-.7939.9922-1.7664 1.5677-2.9572 1.5677-.8931 0-1.5679-.1985-2.0641-.6946-.3969-.4961-.6946-1.0716-.6946-1.6669.0992-1.8653 2.064-2.8377 6.0929-2.8377zm-17.1873-8.1559v.4961h-.0993c-.1984-.3969-.6946-.893-1.2702-1.27-1.1709-.893-2.5602-1.3693-4.3266-1.3693-2.5602 0-4.5251.893-5.9937 2.6591-1.3695 1.5677-2.0641 3.8299-2.0641 6.3898 0 2.6591.6946 4.7229 2.1633 6.3898 1.4687 1.7661 3.5328 2.6591 5.9938 2.6591 2.2625 0 3.9296-.7937 5.1006-2.2622v1.8653c0 1.4685-.4962 2.6591-1.4687 3.4331-.8931.6945-2.064.9922-3.5327.9922-1.171 0-2.3618-.1985-3.632-.6946l-1.4686-.5953-1.3695 3.5323c1.9649.9922 4.0289 1.5676 6.3907 1.5676 2.6595 0 4.8228-.6945 6.5892-1.9645 1.9648-1.4685 3.0365-3.6315 3.0365-6.5883V23.5947c0-.4961.2977-.7937.7939-.7937h1.3496v-3.8299h-4.2274c-.6946 0-1.0717.1984-1.4687.4961-.2977.4762-.4961.8731-.4961 1.27zm-8.0578 3.1354c.7938-.893 1.7663-1.2701 3.1358-1.2701 3.0365 0 4.525 1.7661 4.525 5.1992 0 1.8653-.3969 3.2346-1.2702 4.1275-.7938.7938-1.7663 1.0716-2.9571 1.0716-1.4687 0-2.5603-.5953-3.3343-1.5677-.774-.9723-1.171-2.3614-1.171-3.9291 0-1.5677.397-2.7385 1.0718-3.6314zm-6.1923-1.2701v-3.5322h-3.9296v-.2977c0-2.0638 1.0717-3.0361 3.4335-3.0361l.8931.0992v-3.8299c-.397-.0992-.8931-.0992-1.4687-.0992-1.8656 0-3.4335.3968-4.7235 1.0715-1.7664 1.1708-2.7588 3.0362-2.7588 5.5961v.4961H34.772v-.2977c0-2.0638 1.0717-3.0361 3.5327-3.0361l.9924.0992v-3.8299c-.397-.0992-.9924-.0992-1.5679-.0992-1.8656 0-3.3343.3968-4.6243 1.0715-1.8656 1.1708-2.7588 3.0362-2.7588 5.5961v14.7441h-3.3342c-.4962 0-.7939-.1984-.7939-.7937V21.4317c0-.893-.1985-1.4684-.5954-1.8653-.3969-.2977-.8931-.4961-1.7664-.4961h-8.3555c-.6946 0-1.171.1984-1.4687.4961-.2977.2976-.3969.6945-.3969 1.1708-.0992.1984-.0992.2976 0 .3969h-.0992c-.2977-.3969-.6947-.893-1.171-1.2701-1.171-.7937-2.5602-1.27-4.3266-1.27-2.5602 0-4.525.893-5.9938 2.6591-1.3694 1.5677-1.9648 3.7307-2.064 6.2906.0992 2.5599.7938 4.7229 2.1633 6.489 1.4686 1.7661 3.4335 2.6591 5.9937 2.6591 2.2626 0 3.9297-.7937 5.0014-2.2622v1.7661c0 1.5677-.4961 2.6591-1.4686 3.433-.8931.6946-2.0641.9922-3.632.9922-1.171 0-2.3618-.1984-3.5327-.5953l-1.4687-.5953-1.3695 3.5323c1.9649.9922 4.1282 1.5676 6.3907 1.5676 2.6595 0 4.7236-.6945 6.49-1.9645 1.9648-1.4685 3.0365-3.7307 3.0365-6.5883V23.5947c0-.3969.2977-.6945.7939-.6945h2.6595c.4961 0 .7939.1984.7939.7937v10.9937c0 .893.1984 1.4684.5954 1.7661.2977.3969.8931.5953 1.7663.5953h10.7173V22.6025h5.9938v14.5259h4.5251V22.5827h3.8899v.0198zM5.6964 23.8726c.7938-.893 1.7663-1.3693 3.235-1.3693 3.0366 0 4.5251 1.7661 4.5251 5.1992 0 1.8653-.397 3.3338-1.3695 4.2267-.6946.6946-1.6671 1.0716-2.9571 1.0716-1.3695 0-2.5603-.5953-3.3343-1.5677-.774-.9723-1.171-2.3614-1.171-3.9291 0-1.5677.2977-2.7385 1.0718-3.6314z">
  </path>
  <path d="M21.8115 11.8867h4.5251v4.5245h-4.5251v-4.5245zM119.081 0h.992v56h-.992V0z">
  </path>
 </g>
 <defs>
  <clipPath id="clip0">
   <path fill="#fff" d="M0 0h176.458v56H0z">
   </path>
  </clipPath>
 </defs>
</svg>