<svg version="1.1" id="Layer_1" xmlns:x="ns_extend;" xmlns:i="ns_ai;" xmlns:graph="ns_graphs;" xmlns="http://www.w3.org/2000/svg" xmlns:xlink="http://www.w3.org/1999/xlink" x="0px" y="0px" viewBox="0 0 277.3 52" style="enable-background:new 0 0 277.3 52;" xml:space="preserve">
 <style type="text/css">
  .st0{fill:#F06C00;}
 </style>
 <metadata>
  <sfw xmlns="ns_sfw;">
   <slices>
   </slices>
   <sliceSourceBounds bottomLeftOrigin="true" height="52" width="277.3" x="-73.3" y="0.4">
   </sliceSourceBounds>
  </sfw>
 </metadata>
 <g>
  <path class="st0" d="M66.6,0L66.6,0z">
  </path>
  <path class="st0" d="M253.9,0.3h-3.2c-0.7,0-0.9,0.5-0.9,0.9c0,0.8,2,2.8,2,5.6s-1.1,3.8-1.1,4.7c0,0.3,0.3,0.6,0.8,0.6h1.4
		C256.2,12,259.7,0.3,253.9,0.3z">
  </path>
  <path class="st0" d="M260.4,17.7c0-4.3,8.3-3.9,13.1-0.7c0.4,0.3,0.8,0.5,1.3,0.5c0.7,0,1.1-0.3,1.1-1.2v-2.2c0-0.7-0.2-1.4-1-1.7
		c-8.6-3.6-20.2-1.7-20.2,7.7c0,10.5,16.7,8.4,16.7,14.1c0,4.6-7.9,5-13.6,0.7c-0.3-0.3-0.8-0.5-1.3-0.5c-0.7,0-1.1,0.3-1.1,1.2v2.6
		c-0.1,0.7,0.3,1.4,1,1.7c7.4,3.3,20.9,3.4,20.9-8.8C277.3,20.6,260.4,23,260.4,17.7z">
  </path>
  <path class="st0" d="M274.5,12.6c0,0-0.1,0-0.1,0L274.5,12.6z">
  </path>
  <path class="st0" d="M274.7,12.6l-0.1,0L274.7,12.6z">
  </path>
  <path class="st0" d="M94.5,10.6c-3.7,0-7.5,1.8-9.5,3L84.8,12c0-0.4-0.3-0.8-0.7-0.8c0,0,0,0,0,0h-6.2c-0.4,0.1-0.7,0.4-0.7,0.8
		v28.2c0,0.4,0.3,0.8,0.7,0.8h6.4c0.4,0,0.8-0.3,0.8-0.7c0,0,0,0,0-0.1V17.5c1.3-0.7,3.9-2.1,6.2-2.1c4.4,0,4.7,2.7,4.7,4.9v19.9
		c0,0.4,0.3,0.8,0.7,0.8h6.4c0.4,0,0.8-0.3,0.8-0.7c0,0,0,0,0-0.1V19.7C103.8,14.3,100.9,10.6,94.5,10.6z">
  </path>
  <path class="st0" d="M216.6,11.1c-1-0.3-1.9-0.4-2.9-0.3c-3.7,0-6.7,3-7.9,4.9l-0.1-3.6c0-0.4-0.3-0.8-0.7-0.8c0,0,0,0-0.1,0h-6.2
		c-0.4,0-0.7,0.4-0.7,0.8v28.1c0,0.4,0.3,0.8,0.7,0.8h6.4c0.4,0,0.8-0.3,0.8-0.8c0,0,0,0,0,0V22.3c0-5.7,5.4-5.9,9-5.2
		c0.9,0.2,1.5,0.5,2.2,0.5c0.5,0,0.9-0.4,0.9-0.9v-4.2C217.9,11.8,217.5,11.3,216.6,11.1z">
  </path>
  <path class="st0" d="M216.6,11.1l0.3,0.1L216.6,11.1z">
  </path>
  <path class="st0" d="M191.4,11.3h-6.4c-0.4,0-0.7,0.4-0.7,0.8v19.3c0,4.3-1.3,6.6-5.4,6.6c-3.4,0-5.4-1.9-5.4-5V12.1
		c0-0.4-0.3-0.8-0.7-0.8c0,0,0,0-0.1,0h-6.4c-0.4,0-0.7,0.4-0.7,0.8v19.4c0,7.4,6.6,10.2,13.2,10.2c6.6,0,13.3-2.8,13.3-11V12.1
		C192.3,11.6,191.9,11.3,191.4,11.3C191.5,11.3,191.5,11.3,191.4,11.3z">
  </path>
  <path class="st0" d="M62.3,3.7c0,2.4,1.7,4,4.3,4c2.6,0,4.2-1.6,4.2-4c0-2-1.4-3.7-4.2-3.7h0C63.7,0,62.3,1.7,62.3,3.7z">
  </path>
  <path class="st0" d="M69.9,11.4h-6.4c-0.4,0-0.7,0.4-0.7,0.8v28.1c0,0.4,0.3,0.8,0.7,0.8h6.4c0.4,0,0.8-0.3,0.8-0.8c0,0,0,0,0,0
		V12.1C70.6,11.7,70.3,11.4,69.9,11.4C69.9,11.4,69.9,11.4,69.9,11.4z">
  </path>
  <path class="st0" d="M150.7,10.9c-3.2,0-6.3,1.2-8.7,3.4V1.1c0-0.4-0.3-0.8-0.7-0.8c0,0,0,0-0.1,0h-6.4c-0.4,0-0.7,0.4-0.7,0.8
		v34.2c0,1.1,0.2,2.3,1.2,3c3,2.3,6.8,3.5,10.6,3.5c8.8,0,15.9-6.8,15.9-17C161.8,16.9,157.5,10.9,150.7,10.9z M146.5,38.2
		c-1.9,0-2.9-0.3-3.6-0.7c-0.6-0.4-1-1-0.9-1.7V17.9c1-0.7,2.7-2.1,5.1-2.1c6,0,6.6,7.8,6.6,10.6C153.7,33.9,150.7,38.2,146.5,38.2z
		">
  </path>
  <path class="st0" d="M7.1,9.3c0-3.1,2.9-5.1,6.6-5.1c3.3,0,5.8,1.1,8.5,3c0.7,0.5,1.2,0.9,1.8,0.9c0.7,0,0.9-0.5,0.9-1.1V3.2
		c0.1-0.5-0.2-1-0.7-1.2c-3.4-1.2-7-1.8-10.6-1.7C4.8,0.3,0,5.7,0,11.9c0,13.4,20.7,10.6,20.7,19.7c0,5.5-7.9,9.4-17.2,2.9
		c-0.9-0.6-1.3-0.9-1.9-0.9c-1.1,0-1.3,0.6-1.3,1.2v3.4c-0.1,0.6,0.3,1.1,0.8,1.3c11.1,5.2,27,2.2,27-11.1
		C28.1,16.1,7.1,16.9,7.1,9.3z">
  </path>
  <path class="st0" d="M44.9,10.5c-3.6,0-7.7,0.7-10.3,2.1c-0.6,0.3-1,0.9-1,1.6v3c0,0.7,0.5,1.3,1.1,1.3c0.8,0,1.4-0.7,1.8-1
		c2.5-1.7,4.9-2.8,8.2-2.8c4.1,0,4.7,2.7,4.7,5.9c0,1.5-0.5,1.9-6.3,2.7c-3.5,0.5-11.5,2-11.5,9.3c0,6,4.8,9.2,10.4,9.2
		c3,0,5.6-1.3,7.7-3.2l0.2,1.7c0,0.4,0.2,0.7,0.6,0.8h6.1c0.4,0,0.8-0.3,0.8-0.7c0,0,0,0,0,0V19.6C57.1,14.2,54.3,10.5,44.9,10.5z
		 M49.3,34.5c0,0.9-2.3,3.2-5.3,3.2c-3.5,0-4.8-2.5-4.8-5c0-3.6,2.8-6.9,10.2-6.9V34.5z">
  </path>
  <path class="st0" d="M113.6,17.7c0-4.3,8.3-3.9,13.1-0.7c0.4,0.3,0.8,0.5,1.3,0.5c0.7,0,1-0.3,1-1.2v-2.2c0-0.7-0.2-1.4-1-1.7
		c-8.6-3.6-20.2-1.7-20.2,7.7c0,10.5,16.7,8.4,16.7,14.1c0,4.6-7.9,5-13.6,0.7c-0.3-0.3-0.8-0.5-1.3-0.5c-0.7,0-1.1,0.3-1.1,1.2v2.6
		c-0.1,0.7,0.3,1.4,1,1.7c7.3,3.3,20.9,3.4,20.9-8.8C130.5,20.6,113.6,23,113.6,17.7z">
  </path>
  <path class="st0" d="M235.1,44.1l12.2-31.4c0.1-0.3,0.2-0.6,0.3-0.9c0-0.3-0.3-0.6-0.6-0.6c0,0,0,0,0,0h-3c-0.4,0-0.8,0.3-0.9,0.7
		l-6.6,17.9l-0.4,1.3l-0.4-1.3L228.9,12c-0.1-0.5-0.6-0.8-1.1-0.7h-7.3c-0.3,0-0.6,0.2-0.6,0.4c0,0,0,0.1,0,0.1
		c0,0.4,0.2,0.7,0.3,1.1l12.1,27.9c-0.1,4.9-4.8,6.6-10,5.1c-0.7-0.2-1.4-0.4-2.1-0.4c-0.5,0-0.9,0.4-0.9,0.9v3.8
		c0,0.7,0.5,1.2,1.3,1.4c0.9,0.3,1.8,0.4,2.8,0.3C228.7,52,233.4,48.4,235.1,44.1z">
  </path>
 </g>
</svg>